<mxfile host="Electron" modified="2023-06-20T12:39:22.921Z" agent="Mozilla/5.0 (Macintosh; Intel Mac OS X 10_15_7) AppleWebKit/537.36 (KHTML, like Gecko) draw.io/21.2.8 Chrome/112.0.5615.165 Electron/24.2.0 Safari/537.36" etag="ilDk6mAIV8morZST05DI" version="21.2.8" type="device">
  <diagram name="DEM" id="HsS902EKPvu6vfFKiaio">
    <mxGraphModel dx="842" dy="868" grid="0" gridSize="10" guides="1" tooltips="1" connect="1" arrows="1" fold="1" page="0" pageScale="1" pageWidth="1100" pageHeight="850" math="0" shadow="0">
      <root>
        <mxCell id="0" />
        <mxCell id="1" parent="0" />
        <mxCell id="1jrLFhtRGIM01oO45hAn-1" value="User" style="swimlane;childLayout=stackLayout;horizontal=1;startSize=50;horizontalStack=0;rounded=1;fontSize=14;fontStyle=1;strokeWidth=2;resizeParent=0;resizeLast=1;shadow=0;dashed=0;align=center;arcSize=4;whiteSpace=wrap;html=1;strokeColor=#788AA3;fontColor=#46495D;fillColor=#B2C9AB;labelBackgroundColor=none;swimlaneLine=1;" parent="1" vertex="1">
          <mxGeometry x="520" y="440" width="200" height="280" as="geometry" />
        </mxCell>
        <mxCell id="1jrLFhtRGIM01oO45hAn-2" value="department&lt;br&gt;domain&lt;br&gt;email Address&lt;br&gt;full Name&amp;nbsp;&lt;br&gt;office&lt;br&gt;role&lt;br&gt;username&lt;br&gt;account ID&lt;br&gt;user id&lt;br&gt;&lt;br&gt;" style="align=left;strokeColor=none;fillColor=none;spacingLeft=4;fontSize=12;verticalAlign=top;resizable=0;rotatable=0;part=1;html=1;fontColor=#46495D;labelBackgroundColor=none;swimlaneLine=1;rounded=1;shadow=0;fontStyle=1" parent="1jrLFhtRGIM01oO45hAn-1" vertex="1">
          <mxGeometry y="50" width="200" height="230" as="geometry" />
        </mxCell>
        <mxCell id="1jrLFhtRGIM01oO45hAn-3" value="Device" style="swimlane;childLayout=stackLayout;horizontal=1;startSize=50;horizontalStack=0;rounded=1;fontSize=14;fontStyle=1;strokeWidth=2;resizeParent=0;resizeLast=1;shadow=0;dashed=0;align=center;arcSize=4;whiteSpace=wrap;html=1;strokeColor=#788AA3;fontColor=#46495D;fillColor=#B2C9AB;labelBackgroundColor=none;swimlaneLine=1;" parent="1" vertex="1">
          <mxGeometry x="880" y="440" width="240" height="520" as="geometry" />
        </mxCell>
        <mxCell id="1jrLFhtRGIM01oO45hAn-4" value="&lt;div style=&quot;border-color: var(--border-color); color: rgb(0, 0, 0);&quot;&gt;User ID&lt;/div&gt;&lt;div style=&quot;border-color: var(--border-color); color: rgb(0, 0, 0);&quot;&gt;Account ID&lt;/div&gt;&lt;div style=&quot;border-color: var(--border-color); color: rgb(0, 0, 0);&quot;&gt;Account Name&lt;/div&gt;&lt;div style=&quot;border-color: var(--border-color); color: rgb(0, 0, 0);&quot;&gt;Agent Current Status&lt;/div&gt;&lt;div style=&quot;border-color: var(--border-color); color: rgb(0, 0, 0);&quot;&gt;Agent Version&lt;/div&gt;&lt;div style=&quot;border-color: var(--border-color); color: rgb(0, 0, 0);&quot;&gt;City&lt;/div&gt;&lt;div style=&quot;border-color: var(--border-color); color: rgb(0, 0, 0);&quot;&gt;Country&lt;/div&gt;&lt;div style=&quot;border-color: var(--border-color); color: rgb(0, 0, 0);&quot;&gt;Department&lt;/div&gt;&lt;div style=&quot;border-color: var(--border-color); color: rgb(0, 0, 0);&quot;&gt;Device ID&lt;/div&gt;&lt;div style=&quot;border-color: var(--border-color); color: rgb(0, 0, 0);&quot;&gt;Device CPU Cores&lt;/div&gt;&lt;div style=&quot;border-color: var(--border-color); color: rgb(0, 0, 0);&quot;&gt;Device CPU Frequency&lt;/div&gt;&lt;div style=&quot;border-color: var(--border-color); color: rgb(0, 0, 0);&quot;&gt;Device CPU Generation&lt;/div&gt;&lt;div style=&quot;border-color: var(--border-color); color: rgb(0, 0, 0);&quot;&gt;Device CPU Model&lt;/div&gt;&lt;div style=&quot;border-color: var(--border-color); color: rgb(0, 0, 0);&quot;&gt;Device CPU Type&lt;/div&gt;&lt;div style=&quot;border-color: var(--border-color); color: rgb(0, 0, 0);&quot;&gt;Device Manufacturer&lt;/div&gt;&lt;div style=&quot;border-color: var(--border-color); color: rgb(0, 0, 0);&quot;&gt;Device Memory&lt;/div&gt;&lt;div style=&quot;border-color: var(--border-color); color: rgb(0, 0, 0);&quot;&gt;Device Model&lt;/div&gt;&lt;div style=&quot;border-color: var(--border-color); color: rgb(0, 0, 0);&quot;&gt;Device Name&lt;/div&gt;&lt;div style=&quot;border-color: var(--border-color); color: rgb(0, 0, 0);&quot;&gt;Device Type&lt;/div&gt;&lt;div style=&quot;border-color: var(--border-color); color: rgb(0, 0, 0);&quot;&gt;Enforce Privacy&lt;/div&gt;&lt;div style=&quot;border-color: var(--border-color); color: rgb(0, 0, 0);&quot;&gt;IP Address&lt;/div&gt;&lt;div style=&quot;border-color: var(--border-color); color: rgb(0, 0, 0);&quot;&gt;Last Reporting Datetime&lt;/div&gt;&lt;div style=&quot;border-color: var(--border-color); color: rgb(0, 0, 0);&quot;&gt;Location&amp;nbsp;&lt;/div&gt;&lt;div style=&quot;border-color: var(--border-color); color: rgb(0, 0, 0);&quot;&gt;&lt;div style=&quot;border-color: var(--border-color);&quot;&gt;Data Center Location&lt;/div&gt;&lt;div style=&quot;border-color: var(--border-color);&quot;&gt;Days From Last Boot&lt;/div&gt;&lt;/div&gt;&lt;div style=&quot;border-color: var(--border-color); color: rgb(0, 0, 0);&quot;&gt;&lt;div style=&quot;border-color: var(--border-color);&quot;&gt;OS Architecture&lt;/div&gt;&lt;div style=&quot;border-color: var(--border-color);&quot;&gt;OS Disk Type&lt;/div&gt;&lt;div style=&quot;border-color: var(--border-color);&quot;&gt;OS Name&lt;/div&gt;&lt;div style=&quot;border-color: var(--border-color);&quot;&gt;OS Version&lt;/div&gt;&lt;/div&gt;" style="align=left;strokeColor=none;fillColor=none;spacingLeft=4;fontSize=12;verticalAlign=top;resizable=0;rotatable=0;part=1;html=1;fontColor=#46495D;labelBackgroundColor=none;swimlaneLine=1;rounded=1;shadow=0;fontStyle=1" parent="1jrLFhtRGIM01oO45hAn-3" vertex="1">
          <mxGeometry y="50" width="240" height="470" as="geometry" />
        </mxCell>
        <mxCell id="1jrLFhtRGIM01oO45hAn-5" value="" style="edgeStyle=orthogonalEdgeStyle;fontSize=12;html=1;endArrow=ERzeroToMany;startArrow=ERmandOne;rounded=0;strokeColor=#788AA3;fontColor=default;startSize=8;endSize=8;fillColor=#B2C9AB;entryX=0;entryY=0.25;entryDx=0;entryDy=0;exitX=1;exitY=0.5;exitDx=0;exitDy=0;labelBackgroundColor=none;strokeWidth=3;" parent="1" source="1jrLFhtRGIM01oO45hAn-2" target="1jrLFhtRGIM01oO45hAn-4" edge="1">
          <mxGeometry width="100" height="100" relative="1" as="geometry">
            <mxPoint x="730" y="785" as="sourcePoint" />
            <mxPoint x="830" y="685" as="targetPoint" />
          </mxGeometry>
        </mxCell>
        <mxCell id="1jrLFhtRGIM01oO45hAn-6" value="Application" style="swimlane;childLayout=stackLayout;horizontal=1;startSize=50;horizontalStack=0;rounded=1;fontSize=14;fontStyle=1;strokeWidth=2;resizeParent=0;resizeLast=1;shadow=0;dashed=0;align=center;arcSize=4;whiteSpace=wrap;html=1;strokeColor=#788AA3;fontColor=#46495D;fillColor=#B2C9AB;labelBackgroundColor=none;swimlaneLine=1;" parent="1" vertex="1">
          <mxGeometry x="878" y="1178" width="200" height="280" as="geometry" />
        </mxCell>
        <mxCell id="1jrLFhtRGIM01oO45hAn-7" value="&lt;div style=&quot;border-color: var(--border-color); color: rgb(0, 0, 0);&quot;&gt;Application ID&lt;/div&gt;&lt;div style=&quot;border-color: var(--border-color); color: rgb(0, 0, 0);&quot;&gt;Device ID&lt;/div&gt;&lt;div style=&quot;border-color: var(--border-color); color: rgb(0, 0, 0);&quot;&gt;Application&lt;/div&gt;&lt;div style=&quot;border-color: var(--border-color); color: rgb(0, 0, 0);&quot;&gt;Application Type&lt;/div&gt;&lt;div style=&quot;border-color: var(--border-color); color: rgb(0, 0, 0);&quot;&gt;Application Version&lt;/div&gt;&lt;div style=&quot;border-color: var(--border-color); color: rgb(0, 0, 0);&quot;&gt;Browser&lt;/div&gt;&lt;div style=&quot;border-color: var(--border-color); color: rgb(0, 0, 0);&quot;&gt;Business Location&lt;/div&gt;&lt;div style=&quot;border-color: var(--border-color); color: rgb(0, 0, 0);&quot;&gt;Change Pilot Group&lt;/div&gt;&lt;div style=&quot;border-color: var(--border-color); color: rgb(0, 0, 0);&quot;&gt;Client Device Name&lt;/div&gt;&lt;div style=&quot;border-color: var(--border-color); color: rgb(0, 0, 0);&quot;&gt;Client Device Type&lt;/div&gt;" style="align=left;strokeColor=none;fillColor=none;spacingLeft=4;fontSize=12;verticalAlign=top;resizable=0;rotatable=0;part=1;html=1;fontColor=#46495D;labelBackgroundColor=none;swimlaneLine=1;rounded=1;shadow=0;fontStyle=1" parent="1jrLFhtRGIM01oO45hAn-6" vertex="1">
          <mxGeometry y="50" width="200" height="230" as="geometry" />
        </mxCell>
        <mxCell id="1jrLFhtRGIM01oO45hAn-8" value="" style="edgeStyle=orthogonalEdgeStyle;fontSize=12;html=1;endArrow=ERoneToMany;rounded=0;strokeColor=#788AA3;fontColor=default;startSize=8;endSize=8;fillColor=#B2C9AB;entryX=1;entryY=0.25;entryDx=0;entryDy=0;exitX=1;exitY=0.5;exitDx=0;exitDy=0;labelBackgroundColor=none;strokeWidth=3;" parent="1" source="1jrLFhtRGIM01oO45hAn-4" target="1jrLFhtRGIM01oO45hAn-7" edge="1">
          <mxGeometry width="100" height="100" relative="1" as="geometry">
            <mxPoint x="1150" y="840" as="sourcePoint" />
            <mxPoint x="1230" y="600" as="targetPoint" />
          </mxGeometry>
        </mxCell>
        <mxCell id="1jrLFhtRGIM01oO45hAn-9" value="Application Event" style="swimlane;childLayout=stackLayout;horizontal=1;startSize=50;horizontalStack=0;rounded=1;fontSize=14;fontStyle=1;strokeWidth=2;resizeParent=0;resizeLast=1;shadow=0;dashed=0;align=center;arcSize=4;whiteSpace=wrap;html=1;strokeColor=#788AA3;fontColor=#46495D;fillColor=#B2C9AB;labelBackgroundColor=none;swimlaneLine=1;" parent="1" vertex="1">
          <mxGeometry x="1238" y="1178" width="200" height="280" as="geometry" />
        </mxCell>
        <mxCell id="1jrLFhtRGIM01oO45hAn-10" value="&lt;div style=&quot;border-color: var(--border-color); color: rgb(0, 0, 0);&quot;&gt;Application ID&lt;/div&gt;&lt;div style=&quot;border-color: var(--border-color); color: rgb(0, 0, 0);&quot;&gt;Device ID&lt;/div&gt;&lt;div style=&quot;border-color: var(--border-color); color: rgb(0, 0, 0);&quot;&gt;Activity&lt;/div&gt;&lt;div style=&quot;border-color: var(--border-color); color: rgb(0, 0, 0);&quot;&gt;&lt;div style=&quot;border-color: var(--border-color);&quot;&gt;Event Category&lt;/div&gt;&lt;div style=&quot;border-color: var(--border-color);&quot;&gt;Event Details&lt;/div&gt;&lt;div style=&quot;border-color: var(--border-color);&quot;&gt;Event Type&lt;/div&gt;&lt;div style=&quot;border-color: var(--border-color);&quot;&gt;Title&lt;/div&gt;&lt;/div&gt;&lt;div style=&quot;border-color: var(--border-color); color: rgb(0, 0, 0);&quot;&gt;&lt;span style=&quot;border-color: var(--border-color); background-color: initial;&quot;&gt;Timeframe&lt;/span&gt;&lt;/div&gt;" style="align=left;strokeColor=none;fillColor=none;spacingLeft=4;fontSize=12;verticalAlign=top;resizable=0;rotatable=0;part=1;html=1;fontColor=#46495D;labelBackgroundColor=none;swimlaneLine=1;rounded=1;shadow=0;fontStyle=1" parent="1jrLFhtRGIM01oO45hAn-9" vertex="1">
          <mxGeometry y="50" width="200" height="230" as="geometry" />
        </mxCell>
        <mxCell id="1jrLFhtRGIM01oO45hAn-11" value="" style="edgeStyle=orthogonalEdgeStyle;fontSize=12;html=1;endArrow=ERoneToMany;rounded=0;strokeColor=#788AA3;fontColor=default;startSize=8;endSize=8;fillColor=#B2C9AB;labelBackgroundColor=none;strokeWidth=3;" parent="1" source="1jrLFhtRGIM01oO45hAn-7" target="1jrLFhtRGIM01oO45hAn-10" edge="1">
          <mxGeometry width="100" height="100" relative="1" as="geometry">
            <mxPoint x="1188" y="1038" as="sourcePoint" />
            <mxPoint x="1288" y="938" as="targetPoint" />
          </mxGeometry>
        </mxCell>
        <mxCell id="1jrLFhtRGIM01oO45hAn-12" value="Reporting Agent" style="swimlane;childLayout=stackLayout;horizontal=1;startSize=50;horizontalStack=0;rounded=1;fontSize=14;fontStyle=1;strokeWidth=2;resizeParent=0;resizeLast=1;shadow=0;dashed=0;align=center;arcSize=4;whiteSpace=wrap;html=1;strokeColor=#788AA3;fontColor=#46495D;fillColor=#B2C9AB;labelBackgroundColor=none;swimlaneLine=1;" parent="1" vertex="1">
          <mxGeometry x="1329" y="433" width="160" height="120" as="geometry" />
        </mxCell>
        <mxCell id="1jrLFhtRGIM01oO45hAn-13" value="agentName" style="align=left;strokeColor=none;fillColor=none;spacingLeft=4;fontSize=12;verticalAlign=top;resizable=0;rotatable=0;part=1;html=1;fontColor=#46495D;labelBackgroundColor=none;swimlaneLine=1;rounded=1;shadow=0;fontStyle=1" parent="1jrLFhtRGIM01oO45hAn-12" vertex="1">
          <mxGeometry y="50" width="160" height="70" as="geometry" />
        </mxCell>
        <mxCell id="1jrLFhtRGIM01oO45hAn-14" value="Activity" style="swimlane;childLayout=stackLayout;horizontal=1;startSize=50;horizontalStack=0;rounded=1;fontSize=14;fontStyle=1;strokeWidth=2;resizeParent=0;resizeLast=1;shadow=0;dashed=0;align=center;arcSize=4;whiteSpace=wrap;html=1;strokeColor=#788AA3;fontColor=#46495D;fillColor=#B2C9AB;labelBackgroundColor=none;swimlaneLine=1;" parent="1" vertex="1">
          <mxGeometry x="518" y="1178" width="200" height="280" as="geometry" />
        </mxCell>
        <mxCell id="1jrLFhtRGIM01oO45hAn-15" value="type" style="align=left;strokeColor=none;fillColor=none;spacingLeft=4;fontSize=12;verticalAlign=top;resizable=0;rotatable=0;part=1;html=1;fontColor=#46495D;labelBackgroundColor=none;swimlaneLine=1;rounded=1;shadow=0;fontStyle=1" parent="1jrLFhtRGIM01oO45hAn-14" vertex="1">
          <mxGeometry y="50" width="200" height="230" as="geometry" />
        </mxCell>
        <mxCell id="1jrLFhtRGIM01oO45hAn-16" value="" style="edgeStyle=orthogonalEdgeStyle;fontSize=12;html=1;endArrow=ERoneToMany;rounded=0;strokeColor=#788AA3;fontColor=default;startSize=8;endSize=8;fillColor=#B2C9AB;entryX=0.5;entryY=0;entryDx=0;entryDy=0;exitX=0.5;exitY=1;exitDx=0;exitDy=0;labelBackgroundColor=none;strokeWidth=3;" parent="1" source="1jrLFhtRGIM01oO45hAn-2" target="1jrLFhtRGIM01oO45hAn-14" edge="1">
          <mxGeometry width="100" height="100" relative="1" as="geometry">
            <mxPoint x="610" y="740" as="sourcePoint" />
            <mxPoint x="620" y="900" as="targetPoint" />
          </mxGeometry>
        </mxCell>
        <mxCell id="1jrLFhtRGIM01oO45hAn-17" value="" style="edgeStyle=orthogonalEdgeStyle;fontSize=12;html=1;endArrow=ERmandOne;startArrow=ERmandOne;rounded=0;strokeColor=#788AA3;fontColor=default;startSize=8;endSize=8;fillColor=#B2C9AB;exitX=1;exitY=0.25;exitDx=0;exitDy=0;entryX=0;entryY=0.5;entryDx=0;entryDy=0;labelBackgroundColor=none;strokeWidth=3;" parent="1" source="1jrLFhtRGIM01oO45hAn-4" target="1jrLFhtRGIM01oO45hAn-12" edge="1">
          <mxGeometry width="100" height="100" relative="1" as="geometry">
            <mxPoint x="1210" y="690" as="sourcePoint" />
            <mxPoint x="1310" y="590" as="targetPoint" />
          </mxGeometry>
        </mxCell>
        <mxCell id="1jrLFhtRGIM01oO45hAn-18" value="&lt;h1&gt;&lt;span style=&quot;font-size: 36px; color: rgb(255, 0, 0); background-color: initial;&quot;&gt;Digital Experience Monitoring&lt;/span&gt;&lt;br&gt;&lt;/h1&gt;&lt;div&gt;&lt;h2 style=&quot;border-color: var(--border-color);&quot;&gt;Logical ER Model&lt;/h2&gt;&lt;/div&gt;&lt;pre&gt;version 0.1&lt;/pre&gt;" style="text;strokeColor=none;fillColor=none;html=1;align=left;verticalAlign=middle;whiteSpace=wrap;rounded=1;fontSize=16;fontColor=#46495D;labelBackgroundColor=none;swimlaneLine=1;shadow=0;fontStyle=1" parent="1" vertex="1">
          <mxGeometry x="490" y="140" width="750" height="90" as="geometry" />
        </mxCell>
        <mxCell id="foFtYzeTTRQRAXPd2rSK-1" value="Health Event" style="swimlane;childLayout=stackLayout;horizontal=1;startSize=50;horizontalStack=0;rounded=1;fontSize=14;fontStyle=1;strokeWidth=2;resizeParent=0;resizeLast=1;shadow=0;dashed=0;align=center;arcSize=4;whiteSpace=wrap;html=1;strokeColor=#788AA3;fontColor=#46495D;fillColor=#B2C9AB;labelBackgroundColor=none;swimlaneLine=1;" vertex="1" parent="1">
          <mxGeometry x="1329" y="570" width="240" height="520" as="geometry" />
        </mxCell>
        <mxCell id="foFtYzeTTRQRAXPd2rSK-2" value="&lt;div style=&quot;border-color: var(--border-color); color: rgb(0, 0, 0);&quot;&gt;applicationID&lt;/div&gt;&lt;div style=&quot;border-color: var(--border-color); color: rgb(0, 0, 0);&quot;&gt;category&lt;/div&gt;&lt;div style=&quot;border-color: var(--border-color); color: rgb(0, 0, 0);&quot;&gt;component&lt;/div&gt;&lt;div style=&quot;border-color: var(--border-color); color: rgb(0, 0, 0);&quot;&gt;componentVersion&lt;/div&gt;&lt;div style=&quot;border-color: var(--border-color); color: rgb(0, 0, 0);&quot;&gt;componentType&lt;/div&gt;&lt;div style=&quot;border-color: var(--border-color); color: rgb(0, 0, 0);&quot;&gt;eventDetails&lt;/div&gt;&lt;div style=&quot;border-color: var(--border-color); color: rgb(0, 0, 0);&quot;&gt;error&lt;/div&gt;&lt;div style=&quot;border-color: var(--border-color); color: rgb(0, 0, 0);&quot;&gt;exceptionType&lt;/div&gt;&lt;div style=&quot;border-color: var(--border-color); color: rgb(0, 0, 0);&quot;&gt;manufacturerName&lt;/div&gt;&lt;div style=&quot;border-color: var(--border-color); color: rgb(0, 0, 0);&quot;&gt;memoryType&lt;/div&gt;&lt;div style=&quot;border-color: var(--border-color); color: rgb(0, 0, 0);&quot;&gt;eventName&lt;/div&gt;&lt;div style=&quot;border-color: var(--border-color); color: rgb(0, 0, 0);&quot;&gt;severity&lt;/div&gt;&lt;div style=&quot;border-color: var(--border-color); color: rgb(0, 0, 0);&quot;&gt;eventStack&lt;/div&gt;&lt;div style=&quot;border-color: var(--border-color); color: rgb(0, 0, 0);&quot;&gt;eventStatus&lt;/div&gt;&lt;div style=&quot;border-color: var(--border-color); color: rgb(0, 0, 0);&quot;&gt;eventStopEventInfo&lt;/div&gt;&lt;div style=&quot;border-color: var(--border-color); color: rgb(0, 0, 0);&quot;&gt;eventSubCategory&lt;/div&gt;&lt;div style=&quot;border-color: var(--border-color); color: rgb(0, 0, 0);&quot;&gt;eventSubComponent&lt;/div&gt;&lt;div style=&quot;border-color: var(--border-color); color: rgb(0, 0, 0);&quot;&gt;eventSubComponentVersion&lt;/div&gt;&lt;div style=&quot;border-color: var(--border-color); color: rgb(0, 0, 0);&quot;&gt;eventSubComponentType&lt;/div&gt;&lt;div style=&quot;border-color: var(--border-color); color: rgb(0, 0, 0);&quot;&gt;maxTimestamp&lt;/div&gt;&lt;div style=&quot;border-color: var(--border-color); color: rgb(0, 0, 0);&quot;&gt;machinePowerplan&lt;/div&gt;&lt;div style=&quot;border-color: var(--border-color); color: rgb(0, 0, 0);&quot;&gt;timeframe&lt;/div&gt;&lt;div style=&quot;border-color: var(--border-color); color: rgb(0, 0, 0);&quot;&gt;&lt;br&gt;&lt;/div&gt;&lt;div style=&quot;border-color: var(--border-color); color: rgb(0, 0, 0);&quot;&gt;&lt;br&gt;&lt;/div&gt;" style="align=left;strokeColor=none;fillColor=none;spacingLeft=4;fontSize=12;verticalAlign=top;resizable=0;rotatable=0;part=1;html=1;fontColor=#46495D;labelBackgroundColor=none;swimlaneLine=1;rounded=1;shadow=0;fontStyle=1" vertex="1" parent="foFtYzeTTRQRAXPd2rSK-1">
          <mxGeometry y="50" width="240" height="470" as="geometry" />
        </mxCell>
        <mxCell id="foFtYzeTTRQRAXPd2rSK-3" value="" style="edgeStyle=orthogonalEdgeStyle;fontSize=12;html=1;endArrow=ERoneToMany;rounded=0;strokeColor=#788AA3;fontColor=default;startSize=8;endSize=8;fillColor=#B2C9AB;entryX=-0.008;entryY=0.459;entryDx=0;entryDy=0;exitX=1.008;exitY=0.395;exitDx=0;exitDy=0;labelBackgroundColor=none;strokeWidth=3;exitPerimeter=0;entryPerimeter=0;" edge="1" parent="1" source="1jrLFhtRGIM01oO45hAn-4" target="foFtYzeTTRQRAXPd2rSK-2">
          <mxGeometry width="100" height="100" relative="1" as="geometry">
            <mxPoint x="1235" y="685" as="sourcePoint" />
            <mxPoint x="1193" y="1246" as="targetPoint" />
          </mxGeometry>
        </mxCell>
      </root>
    </mxGraphModel>
  </diagram>
</mxfile>
